<mxfile host="app.diagrams.net" agent="Mozilla/5.0 (Windows NT 10.0; Win64; x64) AppleWebKit/537.36 (KHTML, like Gecko) Chrome/128.0.0.0 Safari/537.36 Edg/128.0.0.0" version="24.7.16">
  <diagram name="Page-1" id="-FVrkKvMY7_zgoq0LRrc">
    <mxGraphModel dx="1386" dy="743" grid="1" gridSize="10" guides="1" tooltips="1" connect="1" arrows="1" fold="1" page="1" pageScale="1" pageWidth="827" pageHeight="1169" math="0" shadow="0">
      <root>
        <mxCell id="0" />
        <mxCell id="1" parent="0" />
        <mxCell id="yoMzTV9leq5T_DlvsGWp-3" style="edgeStyle=orthogonalEdgeStyle;rounded=0;orthogonalLoop=1;jettySize=auto;html=1;" edge="1" parent="1" source="yoMzTV9leq5T_DlvsGWp-1" target="yoMzTV9leq5T_DlvsGWp-2">
          <mxGeometry relative="1" as="geometry" />
        </mxCell>
        <mxCell id="yoMzTV9leq5T_DlvsGWp-1" value="&lt;h1&gt;&lt;b&gt;&lt;font style=&quot;font-size: 24px;&quot;&gt;Start&lt;/font&gt;&lt;/b&gt;&lt;/h1&gt;" style="rounded=1;whiteSpace=wrap;html=1;arcSize=50;fillColor=#d5e8d4;strokeColor=#82b366;" vertex="1" parent="1">
          <mxGeometry x="354" y="10" width="120" height="60" as="geometry" />
        </mxCell>
        <mxCell id="yoMzTV9leq5T_DlvsGWp-5" value="" style="edgeStyle=orthogonalEdgeStyle;rounded=0;orthogonalLoop=1;jettySize=auto;html=1;" edge="1" parent="1" source="yoMzTV9leq5T_DlvsGWp-2" target="yoMzTV9leq5T_DlvsGWp-4">
          <mxGeometry relative="1" as="geometry" />
        </mxCell>
        <mxCell id="yoMzTV9leq5T_DlvsGWp-2" value="Visa alla möjliga avgångar" style="rounded=1;whiteSpace=wrap;html=1;fillColor=#dae8fc;strokeColor=#6c8ebf;" vertex="1" parent="1">
          <mxGeometry x="354" y="100" width="120" height="60" as="geometry" />
        </mxCell>
        <mxCell id="yoMzTV9leq5T_DlvsGWp-11" value="" style="edgeStyle=orthogonalEdgeStyle;rounded=0;orthogonalLoop=1;jettySize=auto;html=1;" edge="1" parent="1" source="yoMzTV9leq5T_DlvsGWp-4" target="yoMzTV9leq5T_DlvsGWp-10">
          <mxGeometry relative="1" as="geometry" />
        </mxCell>
        <mxCell id="yoMzTV9leq5T_DlvsGWp-4" value="Användaren väljer önskad avgång och antal resande" style="shape=parallelogram;perimeter=parallelogramPerimeter;whiteSpace=wrap;html=1;fixedSize=1;size=26;perimeterSpacing=0;fillColor=#e1d5e7;strokeColor=#9673a6;" vertex="1" parent="1">
          <mxGeometry x="328" y="190" width="172" height="60" as="geometry" />
        </mxCell>
        <mxCell id="yoMzTV9leq5T_DlvsGWp-10" value="Platsdiagram med tillgängliga platser visas" style="rounded=1;whiteSpace=wrap;html=1;fillColor=#dae8fc;strokeColor=#6c8ebf;" vertex="1" parent="1">
          <mxGeometry x="354" y="290" width="120" height="60" as="geometry" />
        </mxCell>
        <mxCell id="yoMzTV9leq5T_DlvsGWp-36" style="edgeStyle=orthogonalEdgeStyle;rounded=0;orthogonalLoop=1;jettySize=auto;html=1;" edge="1" parent="1" source="yoMzTV9leq5T_DlvsGWp-15">
          <mxGeometry relative="1" as="geometry">
            <mxPoint x="640" y="430" as="targetPoint" />
            <Array as="points">
              <mxPoint x="741" y="520" />
            </Array>
          </mxGeometry>
        </mxCell>
        <mxCell id="yoMzTV9leq5T_DlvsGWp-13" value="" style="edgeStyle=orthogonalEdgeStyle;rounded=0;orthogonalLoop=1;jettySize=auto;html=1;" edge="1" parent="1" source="yoMzTV9leq5T_DlvsGWp-10" target="yoMzTV9leq5T_DlvsGWp-14">
          <mxGeometry relative="1" as="geometry">
            <mxPoint x="414" y="380" as="targetPoint" />
          </mxGeometry>
        </mxCell>
        <mxCell id="yoMzTV9leq5T_DlvsGWp-20" style="edgeStyle=orthogonalEdgeStyle;rounded=0;orthogonalLoop=1;jettySize=auto;html=1;entryX=0.5;entryY=0;entryDx=0;entryDy=0;" edge="1" parent="1" source="yoMzTV9leq5T_DlvsGWp-14" target="yoMzTV9leq5T_DlvsGWp-19">
          <mxGeometry relative="1" as="geometry" />
        </mxCell>
        <mxCell id="yoMzTV9leq5T_DlvsGWp-38" style="edgeStyle=orthogonalEdgeStyle;rounded=0;orthogonalLoop=1;jettySize=auto;html=1;" edge="1" parent="1" source="yoMzTV9leq5T_DlvsGWp-14" target="yoMzTV9leq5T_DlvsGWp-37">
          <mxGeometry relative="1" as="geometry" />
        </mxCell>
        <mxCell id="yoMzTV9leq5T_DlvsGWp-39" value="Bekräftar" style="edgeLabel;html=1;align=center;verticalAlign=middle;resizable=0;points=[];fontSize=15;" vertex="1" connectable="0" parent="yoMzTV9leq5T_DlvsGWp-38">
          <mxGeometry x="-0.035" y="1" relative="1" as="geometry">
            <mxPoint as="offset" />
          </mxGeometry>
        </mxCell>
        <mxCell id="yoMzTV9leq5T_DlvsGWp-14" value="Användaren väljer en plats eller bekräftar" style="rhombus;whiteSpace=wrap;html=1;fillColor=#fff2cc;strokeColor=#d6b656;" vertex="1" parent="1">
          <mxGeometry x="278" y="390" width="272" height="80" as="geometry" />
        </mxCell>
        <mxCell id="yoMzTV9leq5T_DlvsGWp-15" value="Platsen bokas" style="rounded=1;whiteSpace=wrap;html=1;fillColor=#dae8fc;strokeColor=#6c8ebf;" vertex="1" parent="1">
          <mxGeometry x="580" y="490" width="120" height="60" as="geometry" />
        </mxCell>
        <mxCell id="yoMzTV9leq5T_DlvsGWp-16" style="edgeStyle=orthogonalEdgeStyle;rounded=0;orthogonalLoop=1;jettySize=auto;html=1;exitX=1;exitY=0.5;exitDx=0;exitDy=0;entryX=0.5;entryY=-0.133;entryDx=0;entryDy=0;entryPerimeter=0;" edge="1" parent="1" source="yoMzTV9leq5T_DlvsGWp-14" target="yoMzTV9leq5T_DlvsGWp-15">
          <mxGeometry relative="1" as="geometry" />
        </mxCell>
        <mxCell id="yoMzTV9leq5T_DlvsGWp-17" value="&lt;font style=&quot;font-size: 15px;&quot;&gt;Boka 1 resande&lt;/font&gt;" style="edgeLabel;html=1;align=center;verticalAlign=middle;resizable=0;points=[];" vertex="1" connectable="0" parent="yoMzTV9leq5T_DlvsGWp-16">
          <mxGeometry x="0.2306" y="-4" relative="1" as="geometry">
            <mxPoint x="18" y="-4" as="offset" />
          </mxGeometry>
        </mxCell>
        <mxCell id="yoMzTV9leq5T_DlvsGWp-23" style="edgeStyle=orthogonalEdgeStyle;rounded=0;orthogonalLoop=1;jettySize=auto;html=1;entryX=0.5;entryY=0;entryDx=0;entryDy=0;" edge="1" parent="1" source="yoMzTV9leq5T_DlvsGWp-19" target="yoMzTV9leq5T_DlvsGWp-22">
          <mxGeometry relative="1" as="geometry" />
        </mxCell>
        <mxCell id="yoMzTV9leq5T_DlvsGWp-24" value="Endast 1" style="edgeLabel;html=1;align=center;verticalAlign=middle;resizable=0;points=[];fontSize=15;" vertex="1" connectable="0" parent="yoMzTV9leq5T_DlvsGWp-23">
          <mxGeometry y="2" relative="1" as="geometry">
            <mxPoint x="-2" y="-10" as="offset" />
          </mxGeometry>
        </mxCell>
        <mxCell id="yoMzTV9leq5T_DlvsGWp-29" value="" style="edgeStyle=orthogonalEdgeStyle;rounded=0;orthogonalLoop=1;jettySize=auto;html=1;" edge="1" parent="1" source="yoMzTV9leq5T_DlvsGWp-19" target="yoMzTV9leq5T_DlvsGWp-30">
          <mxGeometry relative="1" as="geometry">
            <mxPoint x="379" y="515" as="targetPoint" />
            <Array as="points">
              <mxPoint x="296" y="515" />
            </Array>
          </mxGeometry>
        </mxCell>
        <mxCell id="yoMzTV9leq5T_DlvsGWp-31" value="Alla" style="edgeLabel;html=1;align=center;verticalAlign=middle;resizable=0;points=[];fontSize=15;" vertex="1" connectable="0" parent="yoMzTV9leq5T_DlvsGWp-29">
          <mxGeometry x="0.0444" relative="1" as="geometry">
            <mxPoint as="offset" />
          </mxGeometry>
        </mxCell>
        <mxCell id="yoMzTV9leq5T_DlvsGWp-19" value="Boka alla eller endast 1" style="rhombus;whiteSpace=wrap;html=1;fillColor=#fff2cc;strokeColor=#d6b656;" vertex="1" parent="1">
          <mxGeometry x="69" y="480" width="160" height="70" as="geometry" />
        </mxCell>
        <mxCell id="yoMzTV9leq5T_DlvsGWp-34" value="" style="endArrow=classic;html=1;rounded=0;exitX=0;exitY=0.547;exitDx=0;exitDy=0;exitPerimeter=0;" edge="1" parent="1" source="yoMzTV9leq5T_DlvsGWp-30">
          <mxGeometry width="50" height="50" relative="1" as="geometry">
            <mxPoint x="40" y="790" as="sourcePoint" />
            <mxPoint x="150" y="430" as="targetPoint" />
            <Array as="points">
              <mxPoint x="10" y="800" />
              <mxPoint x="10" y="430" />
            </Array>
          </mxGeometry>
        </mxCell>
        <mxCell id="yoMzTV9leq5T_DlvsGWp-22" value="Platsen bokas" style="rounded=1;whiteSpace=wrap;html=1;fillColor=#dae8fc;strokeColor=#6c8ebf;" vertex="1" parent="1">
          <mxGeometry x="89" y="610" width="120" height="60" as="geometry" />
        </mxCell>
        <mxCell id="yoMzTV9leq5T_DlvsGWp-26" style="edgeStyle=orthogonalEdgeStyle;rounded=0;orthogonalLoop=1;jettySize=auto;html=1;entryX=0.5;entryY=0;entryDx=0;entryDy=0;" edge="1" parent="1" target="yoMzTV9leq5T_DlvsGWp-19">
          <mxGeometry relative="1" as="geometry">
            <mxPoint x="149" y="430" as="targetPoint" />
            <mxPoint x="89" y="640" as="sourcePoint" />
            <Array as="points">
              <mxPoint x="10" y="640" />
              <mxPoint x="10" y="430" />
              <mxPoint x="149" y="430" />
            </Array>
          </mxGeometry>
        </mxCell>
        <mxCell id="yoMzTV9leq5T_DlvsGWp-27" value="Boka mer än 1 resande" style="edgeLabel;html=1;align=center;verticalAlign=middle;resizable=0;points=[];fontSize=15;" vertex="1" connectable="0" parent="yoMzTV9leq5T_DlvsGWp-26">
          <mxGeometry x="0.7608" y="2" relative="1" as="geometry">
            <mxPoint as="offset" />
          </mxGeometry>
        </mxCell>
        <mxCell id="yoMzTV9leq5T_DlvsGWp-30" value="Platser bokas närmast angiven plats.&lt;br&gt;&lt;br&gt;Fokus på:&lt;div&gt;&lt;ul&gt;&lt;li&gt;Flest bredvid en annan bokad&lt;/li&gt;&lt;li&gt;Så nära varandra som möjligt&lt;/li&gt;&lt;/ul&gt;&lt;/div&gt;" style="rounded=1;whiteSpace=wrap;html=1;fillColor=#dae8fc;strokeColor=#6c8ebf;" vertex="1" parent="1">
          <mxGeometry x="53.5" y="710" width="191" height="165" as="geometry" />
        </mxCell>
        <mxCell id="yoMzTV9leq5T_DlvsGWp-43" value="" style="edgeStyle=orthogonalEdgeStyle;rounded=0;orthogonalLoop=1;jettySize=auto;html=1;" edge="1" parent="1" source="yoMzTV9leq5T_DlvsGWp-37" target="yoMzTV9leq5T_DlvsGWp-42">
          <mxGeometry relative="1" as="geometry" />
        </mxCell>
        <mxCell id="yoMzTV9leq5T_DlvsGWp-37" value="Visa bokningsbekräftelse med:&lt;div&gt;&lt;ul&gt;&lt;li&gt;Alla platser&lt;/li&gt;&lt;li&gt;Alla platstyper&lt;/li&gt;&lt;li&gt;Avgångstid&lt;/li&gt;&lt;li&gt;Tågnummer&lt;/li&gt;&lt;/ul&gt;&lt;/div&gt;" style="rounded=1;whiteSpace=wrap;html=1;fillColor=#dae8fc;strokeColor=#6c8ebf;" vertex="1" parent="1">
          <mxGeometry x="440" y="610" width="160" height="140" as="geometry" />
        </mxCell>
        <mxCell id="yoMzTV9leq5T_DlvsGWp-46" value="" style="edgeStyle=orthogonalEdgeStyle;rounded=0;orthogonalLoop=1;jettySize=auto;html=1;" edge="1" parent="1" source="yoMzTV9leq5T_DlvsGWp-41" target="yoMzTV9leq5T_DlvsGWp-45">
          <mxGeometry relative="1" as="geometry" />
        </mxCell>
        <mxCell id="yoMzTV9leq5T_DlvsGWp-41" value="Skriv ut biljetter" style="shape=document;whiteSpace=wrap;html=1;boundedLbl=1;fillColor=#f5f5f5;strokeColor=#666666;fontColor=#333333;" vertex="1" parent="1">
          <mxGeometry x="460" y="920" width="120" height="80" as="geometry" />
        </mxCell>
        <mxCell id="yoMzTV9leq5T_DlvsGWp-44" value="" style="edgeStyle=orthogonalEdgeStyle;rounded=0;orthogonalLoop=1;jettySize=auto;html=1;" edge="1" parent="1" source="yoMzTV9leq5T_DlvsGWp-42" target="yoMzTV9leq5T_DlvsGWp-41">
          <mxGeometry relative="1" as="geometry" />
        </mxCell>
        <mxCell id="yoMzTV9leq5T_DlvsGWp-42" value="Spara bokningsdetaljer" style="whiteSpace=wrap;html=1;fillColor=#dae8fc;strokeColor=#6c8ebf;rounded=1;" vertex="1" parent="1">
          <mxGeometry x="460" y="815" width="120" height="60" as="geometry" />
        </mxCell>
        <mxCell id="yoMzTV9leq5T_DlvsGWp-45" value="&lt;h1&gt;Slut&lt;/h1&gt;" style="rounded=1;whiteSpace=wrap;html=1;arcSize=50;fillColor=#f8cecc;strokeColor=#b85450;" vertex="1" parent="1">
          <mxGeometry x="460" y="1040" width="120" height="60" as="geometry" />
        </mxCell>
      </root>
    </mxGraphModel>
  </diagram>
</mxfile>
